HIERARCHY
ROOT Hips
{
    OFFSET 0.000000 0.000000 0.000000
    CHANNELS 6 Xposition Yposition Zposition Zrotation Xrotation Yrotation
        JOINT Chest
        {
            OFFSET -0.000000 31.780966 -0.000000
            CHANNELS 3 Zrotation Xrotation Yrotation
            JOINT Neck
            {
                OFFSET -0.000000 23.880144 0.000000
                CHANNELS 3 Zrotation Xrotation Yrotation
                JOINT Head
                {
                    OFFSET -0.000000 10.511110 0.000000
                    CHANNELS 3 Zrotation Xrotation Yrotation
                    End Site
                    {
                        OFFSET -0.000000 16.244448 0.000000
                    }
                }
            }
            JOINT LeftCollar
            {
                OFFSET -0.000000 23.880144 0.000000
                CHANNELS 3 Zrotation Xrotation Yrotation
                JOINT LeftShoulder
                {
                    OFFSET 19.111111 -0.000000 0.000000
                    CHANNELS 3 Zrotation Xrotation Yrotation
                    JOINT LeftElbow
                    {
                        OFFSET 21.456259 0.000000 0.000000
                        CHANNELS 3 Zrotation Xrotation Yrotation
                        JOINT LeftWrist
                        {
                            OFFSET 25.693237 0.000000 0.000000
                            CHANNELS 3 Zrotation Xrotation Yrotation
                            End Site
                            {
                                OFFSET 0.000000 -14.333333 0.000000
                            }
                        }
                    }
                }
            }
            JOINT RightCollar
            {
                OFFSET -0.000000 23.880144 0.000000
                CHANNELS 3 Zrotation Xrotation Yrotation
                JOINT RightShoulder
                {
                    OFFSET -19.111111 0.000000 0.000000
                    CHANNELS 3 Zrotation Xrotation Yrotation
                    JOINT RightElbow
                    {
                        OFFSET -21.456259 0.000000 0.000000
                        CHANNELS 3 Zrotation Xrotation Yrotation
                        JOINT RightWrist
                        {
                            OFFSET -25.693237 0.000000 0.000000
                            CHANNELS 3 Zrotation Xrotation Yrotation
                            End Site
                            {
                                OFFSET -0.000000 -14.333333 0.000000
                            }
                        }
                    }
                }
            }
        }
    JOINT LeftHip
    {
        OFFSET 11.466667 0.000000 0.000000
        CHANNELS 3 Zrotation Xrotation Yrotation
        JOINT LeftKnee
        {
            OFFSET -0.000000 -37.225342 0.000000
            CHANNELS 3 Zrotation Xrotation Yrotation
            JOINT LeftAnkle
            {
                OFFSET -0.000000 -35.678333 0.000000
                CHANNELS 3 Zrotation Xrotation Yrotation
                End Site
                {
                    OFFSET -0.000000 -4.777778 16.244448
                }
            }
        }
    }
    JOINT RightHip
    {
        OFFSET -11.466667 0.000000 0.000000
        CHANNELS 3 Zrotation Xrotation Yrotation
        JOINT RightKnee
        {
            OFFSET -0.000000 -37.225342 0.000000
            CHANNELS 3 Zrotation Xrotation Yrotation
            JOINT RightAnkle
            {
                OFFSET -0.000000 -35.678333 0.000000
                CHANNELS 3 Zrotation Xrotation Yrotation
                End Site
                {
                    OFFSET -0.000000 -4.777778 16.244448
                }
            }
        }
    }
}
MOTION
Frames:    12
Frame Time:    0.010000
-24.002123    83.027618    -55.213326    -7.295745    -11.272888    -84.712692    5.954568    -19.978312    -34.086967    2.063812    5.873487    28.820324    -20.762426    -11.700136    26.746927    -3.598970    -0.043245    1.692371    7.107534    38.256355    -10.897927    8.508709    -2.236625    -26.896444    107.778740    17.325567    55.190212    -3.897601    0.240698    -6.817485    5.399479    -47.163944    -12.187587    -66.983330    -32.111340    46.561279    -117.778137    3.174884    -94.756149    -17.552496    10.511658    9.780090    -4.549676    34.086586    -0.282316    3.259791    -2.701345    15.747198    -3.280935    3.761743    7.668080    -12.994387    51.909225    1.252152    16.701265    2.778537    -26.704393    
-24.325184    84.081718    -55.520187    -6.920149    -10.266189    -82.710060    5.450480    -20.685877    -33.495167    2.534847    5.429097    27.361055    -20.343319    -10.739818    25.517281    -4.451607    -0.046419    1.393022    4.704972    37.439594    -10.138075    10.915439    -3.267736    -30.803738    107.410278    17.433521    59.690037    -4.199613    0.242006    -6.707672    5.905276    -47.389484    -10.062695    -67.848328    -31.665442    44.748917    -118.713364    6.829522    -92.593155    -15.745522    11.481565    10.133225    -3.355002    31.757061    -2.500892    2.878438    -0.404133    14.788727    -2.136600    4.562372    5.985388    -11.967857    48.910774    0.263035    16.234388    6.828979    -26.961107    
-24.642859    85.160866    -55.872337    -6.552139    -9.180126    -80.580490    4.795616    -21.423046    -32.839523    2.956542    5.018515    25.734224    -19.800953    -9.798977    24.115128    -5.416486    -0.068312    1.206611    2.471923    36.862881    -9.787997    13.560683    -4.605926    -35.040428    107.208382    17.764641    63.518337    -4.611708    0.245844    -6.683115    7.037261    -47.714428    -7.480249    -69.326889    -31.186874    42.552586    -119.747566    10.461590    -90.170357    -13.747990    12.339653    10.378022    -2.330728    29.394472    -4.632580    2.447407    1.946326    13.747250    -0.906445    5.186625    4.237446    -11.000365    45.945961    -0.622920    15.892078    11.154186    -27.014458    
-24.948246    86.253563    -56.267178    -6.198498    -8.021068    -78.347923    3.929203    -22.195379    -32.127876    3.373196    4.644320    23.944273    -19.135855    -8.868747    22.546221    -6.471220    -0.050631    1.171417    0.478354    36.567257    -9.916385    16.291630    -6.231380    -39.491112    107.214119    18.429909    66.395370    -5.233826    0.269512    -6.602545    8.767492    -48.558334    -4.807511    -71.111801    -30.745914    40.551857    -120.897690    14.280976    -87.512810    -11.598171    13.013378    10.442612    -1.488671    27.079571    -6.571683    1.988085    4.327406    12.651703    0.367176    5.600235    2.493253    -10.054437    43.077045    -1.409978    15.738679    15.643333    -26.788647    
-25.233438    87.346413    -56.701134    -5.865505    -6.796624    -76.035698    2.784003    -22.988848    -31.371508    3.827655    4.298682    22.004852    -18.337234    -7.948030    20.823889    -7.561702    -0.094134    1.320244    -1.215421    36.701244    -10.605132    19.123842    -8.174571    -43.876282    107.331604    19.408978    68.396111    -6.165588    0.340086    -6.263051    10.992682    -50.401085    -2.526522    -72.809013    -30.506693    39.345905    -122.119965    18.312632    -84.654716    -9.344268    13.424162    10.254509    -0.823644    24.920286    -8.217113    1.535276    6.696212    11.543326    1.640914    5.783284    0.820034    -9.109861    40.362263    -2.046626    15.793599    20.147928    -26.198563    
-25.489738    88.424835    -57.170891    -5.558741    -5.514417    -73.662834    1.307009    -23.765444    -30.575119    4.347671    3.957699    19.931517    -17.381405    -7.040690    18.961561    -8.626345    -0.141699    1.668690    -2.582839    37.205761    -11.875646    21.853180    -10.297850    -48.085045    107.628937    20.577765    69.469421    -7.462530    0.413952    -5.492857    13.516414    -53.468788    -1.075168    -74.196465    -30.660475    39.161938    -123.250717    22.355993    -81.659569    -7.039202    13.489195    9.751746    -0.312759    23.052280    -9.491852    1.136978    8.988275    10.473629    2.881174    5.732041    -0.719633    -8.161553    37.848885    -2.428034    16.055895    24.474134    -25.184000    
-25.708702    89.473511    -57.674694    -5.284355    -4.180618    -71.241257    -0.522747    -24.478014    -29.715637    4.959748    3.599600    17.734999    -16.254097    -6.151317    16.965431    -9.612607    -0.203013    2.201297    -3.576699    38.053013    -13.773017    24.443661    -12.535926    -51.915703    108.084404    21.784914    69.747726    -9.056095    0.440700    -4.225992    15.907877    -57.584572    -0.773037    -75.282463    -31.273621    39.782562    -124.023743    26.155098    -78.568123    -4.734512    13.127146    8.891080    0.077139    21.628914    -10.355006    0.845695    11.120818    9.502465    4.074698    5.458632    -2.065299    -7.217682    35.565617    -2.427506    16.543776    28.381748    -23.757631    
-25.884306    90.476593    -58.212791    -5.052558    -2.800717    -68.774132    -2.689827    -25.081697    -28.729916    5.700966    3.195138    15.414213    -14.954258    -5.278214    14.829914    -10.490693    -0.261672    2.866314    -4.131118    39.169613    -16.329449    26.816212    -14.753306    -55.284393    108.741394    22.900585    69.319283    -10.715647    0.388162    -2.558132    17.478788    -62.164799    -1.813482    -76.336342    -32.246616    40.554184    -124.201317    29.614346    -75.319878    -2.476424    12.271197    7.650878    0.375193    20.797483    -10.798413    0.705253    13.001879    8.692163    5.234200    4.991770    -3.156959    -6.300354    33.516350    -1.947007    17.303232    31.595501    -22.022779    
-26.014534    91.418190    -58.786602    -4.878674    -1.382846    -66.255371    -5.154015    -25.526003    -27.531286    6.602953    2.689413    12.962942    -13.476742    -4.423807    12.539579    -11.245181    -0.332254    3.591112    -4.146428    40.499111    -19.603624    28.957592    -16.871323    -58.131660    109.612556    23.816591    68.285965    -12.094553    0.253349    -0.760938    17.683643    -66.344719    -4.023454    -77.917137    -33.286018    40.515865    -123.703049    32.741871    -71.787125    -0.306185    10.882877    6.033150    0.593102    20.667166    -10.833780    0.737345    14.542631    8.098392    6.393183    4.374271    -3.939336    -5.444392    31.678122    -0.964828    18.361322    33.837982    -20.141878    
-26.101488    92.282806    -59.397507    -4.781109    0.059775    -63.671627    -7.861311    -25.737476    -26.045574    7.658023    2.000499    10.378032    -11.800148    -3.615270    10.076259    -11.869025    -0.419631    4.301994    -3.506229    41.962948    -23.664860    30.862341    -18.815742    -60.471615    110.691528    24.456791    66.741974    -12.844024    0.081975    0.771488    17.013063    -69.185631    -6.198439    -80.716805    -33.976467    38.642056    -122.756866    35.645554    -67.909302    1.738107    8.962585    4.070127    0.719471    21.277445    -10.481208    0.932151    15.666142    7.757761    7.593961    3.654809    -4.368329    -4.690311    30.008209    0.434711    19.658106    34.883747    -18.281490    
-26.150209    93.056396    -60.045807    -4.776852    1.507787    -61.007412    -10.746368    -25.615540    -24.242327    8.798374    1.042214    7.667314    -9.904196    -2.902840    7.427006    -12.365458    -0.515862    4.933736    -2.105960    43.442879    -28.566633    32.540775    -20.552252    -62.353416    111.942116    24.779970    64.792671    -12.765781    -0.053442    1.667031    17.298855    -69.994736    -6.026461    -85.247330    -33.709019    34.232098    -121.772377    38.432777    -63.832897    3.619096    6.554763    1.833456    0.727588    22.575384    -9.770964    1.252144    16.315050    7.673560    8.870860    2.875398    -4.419056    -4.071510    28.459579    2.061053    21.024185    34.628288    -16.582693    
-26.167828    93.727371    -60.729801    -4.879785    2.934663    -58.252903    -13.728617    -25.051615    -22.143688    9.902738    -0.224471    4.854449    -7.791047    -2.350199    4.598632    -12.758009    -0.591186    5.429752    0.078897    44.753651    -34.261189    33.990673    -22.057779    -63.872429    113.311539    24.781921    62.548347    -11.935285    -0.112645    1.748768    19.660751    -68.580803    -2.307518    -91.212921    -31.778955    27.542343    -121.119858    41.501438    -60.050625    5.299869    3.751276    -0.553472    0.599452    24.409912    -8.766445    1.664894    16.469139    7.802943    10.236320    2.065136    -4.094134    -3.603978    26.994982    3.643717    22.238667    33.153294    -15.165275    
